<?xml version="1.0" standalone="no"?>
<!DOCTYPE svg PUBLIC "-//W3C//DTD SVG 20010904//EN"
 "http://www.w3.org/TR/2001/REC-SVG-20010904/DTD/svg10.dtd">
<svg version="1.0" xmlns="http://www.w3.org/2000/svg"
 width="225.000000pt" height="225.000000pt" viewBox="0 0 225.000000 225.000000"
 preserveAspectRatio="xMidYMid meet">

<g transform="translate(0.000000,225.000000) scale(0.100000,-0.100000)"
fill="#000000" stroke="none">
<path d="M982 2240 c-203 -18 -326 -71 -372 -160 -17 -34 -20 -59 -20 -184 l0
-146 272 -2 271 -3 0 -40 0 -40 -434 -5 c-429 -5 -435 -5 -477 -28 -101 -54
-157 -132 -193 -269 -30 -113 -30 -353 0 -475 35 -150 98 -245 188 -289 37
-18 69 -23 169 -27 l122 -5 4 184 c3 211 14 248 91 327 76 78 101 82 461 82
172 0 337 5 367 10 97 19 172 69 212 145 21 38 22 54 25 359 4 357 2 369 -63
439 -91 99 -344 151 -623 127z m-325 -125 c0 -8 -4 -12 -9 -9 -5 3 -6 10 -3
15 9 13 12 11 12 -6z m212 -49 c57 -30 68 -110 22 -157 -63 -63 -171 -20 -171
68 1 79 78 125 149 89z"/>
</g>
</svg>
